P2
# Created by IrfanView
82 50
255
17 20 31 43 36 31 26 17 10 8 10 16 25 35 33 25 20 
18 24 40 39 24 11 9 17 28 33 30 21 17 16 14 15 
22 22 18 16 14 20 28 31 23 14 12 16 35 53 54 40 
29 28 38 48 47 40 39 38 35 21 8 6 13 22 34 42 
36 29 21 24 35 38 31 30 25 18 14 12 25 47 45 24 
6 22 23 34 41 33 30 29 21 14 11 13 18 26 36 36 30 28 
25 30 41 41 27 16 13 20 30 33 30 22 19 18 18 20 
26 26 23 22 20 22 30 32 25 17 14 20 38 52 52 38 
28 29 39 50 48 40 37 35 33 22 10 9 15 24 33 37 
32 27 22 24 35 35 29 28 26 21 16 13 25 45 42 21 
9 27 29 38 37 27 27 33 30 23 20 23 28 34 45 50 49 50 
45 45 49 48 39 31 27 31 36 36 32 27 24 24 27 30 
35 35 33 32 33 36 45 44 35 26 25 33 48 55 50 38 
29 31 43 57 56 46 37 33 31 24 16 17 25 30 32 30 
28 26 25 29 38 36 27 27 30 28 21 17 30 48 40 17 
7 34 32 35 33 27 29 37 40 34 30 33 39 45 52 54 58 60 
61 57 55 54 51 49 46 44 45 45 42 40 38 38 40 41 
41 36 31 33 40 50 57 54 45 38 35 41 51 55 48 36 
30 34 47 62 61 51 42 34 28 24 19 23 30 31 25 26 
26 26 31 36 39 32 25 26 32 31 22 19 28 47 42 21 
13 29 28 30 32 30 35 45 53 47 42 42 45 45 44 39 39 44 
47 47 46 46 47 48 48 46 47 51 50 47 45 46 47 46 
38 29 23 26 33 44 50 49 43 36 31 34 42 49 45 34 
29 35 48 61 57 48 41 36 31 26 21 25 31 27 22 24 
25 25 34 41 41 32 27 29 34 30 21 17 24 39 41 28 
24 29 31 34 33 30 37 54 67 66 60 59 55 50 42 32 27 27 
28 31 33 34 35 36 40 41 43 47 43 36 34 37 40 39 
34 27 23 25 27 31 37 42 41 35 29 28 35 48 48 37 
32 38 51 58 52 43 42 42 41 36 31 34 38 30 25 26 
27 29 39 47 48 41 36 37 39 32 21 16 20 31 34 29 
29 46 45 44 36 32 39 56 66 66 64 64 59 49 40 30 24 21 
22 24 25 26 27 29 34 36 36 38 33 23 20 22 27 29 
29 27 23 22 21 22 27 35 41 38 30 26 33 48 50 41 
36 43 55 57 47 39 41 46 47 46 45 49 46 36 29 30 
34 38 42 47 48 43 38 39 40 32 22 17 19 24 26 27 
27 51 46 41 36 34 42 51 51 46 43 44 41 36 33 28 21 19 
22 24 22 23 25 26 28 30 30 30 25 16 13 13 16 20 
23 22 17 13 12 14 19 28 37 40 34 31 37 47 43 36 
36 45 55 53 41 36 40 41 40 39 43 49 43 33 29 33 
38 42 41 40 39 35 31 34 37 34 29 23 21 20 19 21 
21 39 37 36 34 36 44 46 37 29 24 26 27 28 31 30 26 24 
26 28 24 24 25 24 26 30 29 25 19 16 13 12 14 17 
21 21 14 9 7 12 20 28 38 42 43 45 46 44 35 31 
36 44 52 49 36 37 43 37 31 27 33 37 32 26 26 31 
38 39 37 36 36 32 28 28 30 31 29 26 24 20 17 18 
19 30 30 33 36 41 49 46 35 26 21 24 27 28 32 34 32 31 
33 36 32 28 24 22 26 32 29 23 19 20 19 16 16 18 
23 23 17 11 9 15 25 31 37 42 46 48 44 36 30 31 
39 49 52 40 33 39 45 39 28 22 26 30 24 19 21 28 
34 32 31 34 38 36 32 27 23 21 22 22 21 20 19 21 
23 25 25 28 36 47 58 55 43 36 32 36 36 34 34 33 31 32 
37 44 44 38 29 25 28 32 30 25 23 26 24 18 15 16 
20 22 20 15 15 24 34 36 37 40 43 41 33 26 23 29 
39 51 52 36 31 40 47 42 29 20 23 26 22 16 20 27 
28 24 25 34 46 48 39 28 20 17 19 19 19 19 18 21 
23 30 30 35 41 50 63 63 56 52 48 50 46 38 33 30 28 29 
33 38 46 45 39 34 33 34 31 28 27 29 27 19 13 13 
15 17 19 20 24 37 44 39 38 40 39 33 24 20 20 27 
40 53 52 38 37 45 53 47 29 17 18 22 22 23 26 31 
27 19 22 33 50 57 44 28 18 15 20 23 20 18 18 20 
22 30 32 42 53 70 89 93 87 79 67 58 47 38 31 24 23 24 
23 24 34 46 51 47 43 41 37 33 30 29 25 17 13 12 
13 14 18 24 35 49 50 42 39 38 33 24 16 15 20 29 
43 53 49 43 44 56 65 50 25 13 12 17 22 29 36 36 
26 16 18 27 46 61 50 32 21 17 24 26 19 16 15 16 
17 26 33 57 91 125 142 140 133 121 104 86 65 50 38 28 25 22 
18 19 30 46 58 57 50 44 37 32 30 28 24 18 14 13 
14 16 20 28 42 56 54 40 33 30 25 18 12 13 21 35 
46 49 43 40 47 61 76 56 24 11 9 14 24 39 46 37 
22 12 13 20 37 56 56 41 31 27 30 26 16 11 11 11 
12 38 50 94 142 163 162 152 149 144 142 137 118 97 74 54 38 26 
20 22 31 40 49 48 41 34 25 23 24 24 24 24 21 19 
18 19 23 29 43 56 50 32 23 21 20 17 13 15 25 39 
45 40 33 33 42 57 80 62 28 14 9 15 28 46 50 33 
17 10 10 17 29 44 54 50 42 37 33 24 15 13 12 12 
11 77 84 129 166 146 119 100 99 107 122 140 151 147 136 113 80 45 
31 30 33 34 36 34 31 27 17 15 18 17 19 25 29 30 
27 22 24 28 40 52 44 24 14 14 17 17 15 18 29 40 
39 32 25 26 37 53 74 67 31 14 11 16 31 50 50 31 
16 10 10 17 27 33 38 43 44 43 34 23 18 17 16 15 
14 130 143 177 163 110 65 48 46 53 68 85 106 126 139 142 125 85 
54 41 37 34 32 30 30 30 21 16 17 15 16 23 32 37 
35 29 29 31 39 47 37 19 9 9 14 17 17 23 32 38 
34 24 18 22 35 55 72 61 31 13 11 18 34 49 50 35 
19 13 13 21 30 27 24 28 36 44 39 27 24 24 20 16 
15 230 220 199 139 80 51 40 34 33 39 44 53 68 86 114 129 118 
88 66 51 45 38 36 36 39 35 30 25 21 20 24 28 32 
32 34 36 37 42 43 29 14 7 8 13 17 20 26 35 37 
29 19 15 20 34 57 71 57 30 13 10 18 34 49 52 36 
21 16 16 24 29 23 18 20 28 43 48 39 34 32 24 18 
15 255 211 152 101 68 55 46 42 40 40 39 40 43 54 81 116 131 
131 116 98 85 68 62 63 74 75 70 54 39 31 28 25 24 
25 30 38 43 46 40 23 12 9 10 14 17 19 25 34 36 
27 18 16 22 37 60 71 57 33 18 14 22 36 49 52 37 
22 17 17 23 27 21 16 18 27 42 54 50 47 40 28 18 
15 183 149 103 74 67 66 66 68 66 63 55 50 45 49 68 98 128 
148 151 148 133 115 103 106 117 124 115 104 84 65 47 35 28 
25 26 33 38 42 37 23 15 14 14 16 16 17 23 30 34 
31 26 24 32 43 61 70 59 40 26 25 32 42 50 49 36 
23 17 16 22 28 25 20 21 31 43 52 53 50 46 33 23 
21 135 119 89 62 52 56 66 73 85 91 83 73 61 59 65 82 106 
125 136 150 156 158 149 143 127 115 112 117 110 98 80 57 40 
31 26 26 29 35 34 25 20 21 21 19 17 21 25 29 35 
41 37 34 38 44 54 62 54 41 33 32 37 44 44 40 32 
22 18 19 25 30 29 27 29 39 49 52 47 44 43 34 25 
23 100 101 94 73 54 48 50 57 73 92 100 94 81 73 70 74 84 
90 92 101 119 134 136 122 98 76 69 78 90 100 103 93 74 
57 42 30 27 30 28 21 19 23 26 25 28 32 33 33 42 
51 49 43 41 41 44 49 45 37 35 33 35 40 36 31 27 
21 21 26 35 40 41 44 48 58 62 60 50 41 39 30 21 
19 78 84 91 86 67 53 50 54 64 81 97 102 92 78 72 69 73 
67 59 59 66 76 86 78 65 49 39 41 53 70 90 107 110 
99 79 54 37 31 25 18 16 23 33 41 48 51 51 57 69 
85 83 75 67 59 52 47 41 36 36 34 34 42 39 32 27 
23 27 39 53 61 67 73 79 87 90 85 69 53 43 37 28 
27 67 74 88 91 82 69 62 63 71 82 103 111 100 83 70 67 71 
64 52 46 46 54 65 68 60 47 35 31 33 41 54 72 90 
104 105 91 69 51 37 30 31 41 56 69 81 91 100 113 125 
137 135 126 111 98 86 74 59 48 44 40 42 49 49 45 41 
39 48 69 96 112 119 113 112 121 137 138 121 94 74 60 51 
50 59 72 96 107 109 101 93 84 81 83 94 106 103 87 71 71 80 
80 66 52 42 42 51 61 65 59 47 40 39 42 45 49 59 
78 102 114 109 90 68 58 59 71 94 113 128 141 153 164 171 
172 167 155 152 143 132 120 100 82 69 66 66 73 77 83 84 
84 98 126 152 162 158 156 157 165 179 180 165 137 118 95 83 
85 74 83 107 128 137 134 121 99 83 72 75 84 91 88 77 68 76 
83 78 64 47 36 38 47 56 58 54 48 45 43 43 42 46 
58 86 115 136 139 123 116 118 139 162 173 168 166 159 153 150 
140 130 132 143 152 154 147 136 122 107 101 99 104 112 121 129 
137 152 168 159 140 131 141 155 164 159 162 162 154 149 139 128 
132 99 96 106 120 127 131 125 102 80 62 61 72 85 89 86 73 67 
70 75 70 58 44 37 43 48 51 49 48 48 47 42 39 39 
49 79 121 154 169 176 181 188 196 198 188 171 153 129 107 88 
77 72 77 88 103 123 133 136 133 123 108 103 107 118 124 134 
147 157 145 113 84 76 80 98 111 105 108 121 134 148 159 160 
171 86 82 83 83 83 92 98 94 80 67 63 72 85 95 97 89 75 
68 74 76 71 65 63 64 65 61 55 51 50 48 48 45 47 
57 92 136 160 163 170 172 175 171 171 160 142 121 97 75 62 
51 46 44 50 61 80 100 114 117 113 105 102 106 111 114 118 
123 115 92 65 47 41 43 61 76 73 72 81 92 115 129 135 
145 60 55 59 59 56 60 72 80 82 76 71 72 76 88 97 99 91 
78 80 89 88 85 86 91 92 85 75 65 58 49 46 46 55 
70 105 141 148 146 140 137 140 148 142 124 103 85 69 53 44 
35 28 28 30 39 53 74 88 95 99 102 99 93 92 90 85 
78 66 49 38 31 29 33 48 64 61 58 61 69 87 95 94 
96 56 53 57 60 57 56 56 62 69 68 63 61 60 70 82 93 92 
85 80 84 88 83 79 86 92 96 86 75 62 51 47 49 59 
83 118 142 133 116 107 102 107 105 89 74 68 64 59 51 45 
35 26 22 21 25 36 53 69 77 85 85 79 71 68 60 49 
40 35 31 28 27 30 36 48 59 63 64 62 61 69 71 70 
73 62 62 71 77 80 76 67 59 60 59 54 57 57 58 64 71 74 
77 76 74 77 69 62 63 74 83 81 74 62 52 49 55 74 
107 137 138 114 90 74 62 61 53 39 37 43 52 56 56 55 
45 34 27 23 23 30 40 48 58 70 73 71 68 63 51 38 
31 27 22 19 22 29 38 53 64 71 77 71 60 59 53 51 
55 63 62 72 87 100 112 105 89 81 76 72 72 73 71 67 63 63 
67 71 71 70 66 60 52 52 59 59 62 59 56 58 71 102 
137 150 132 106 80 60 52 45 34 23 22 28 41 48 49 45 
39 34 29 27 28 31 32 32 38 52 63 67 64 55 43 34 
26 19 11 8 10 17 30 51 67 72 76 65 57 60 60 58 
62 46 44 48 59 78 105 115 117 108 104 108 109 103 92 84 74 67 
64 69 71 72 70 64 50 43 45 48 53 59 66 78 102 147 
171 148 112 78 54 47 44 38 27 22 22 27 34 42 43 37 
32 29 29 31 33 33 30 27 29 37 45 48 45 34 27 22 
18 14 9 5 6 11 24 46 63 65 64 59 60 69 70 65 
65 24 23 25 30 43 67 89 101 109 112 116 127 129 113 95 86 80 
74 72 74 76 80 77 56 45 46 51 59 65 77 95 131 173 
170 122 78 49 35 36 37 35 28 23 21 22 26 33 40 37 
31 29 28 31 33 29 22 20 21 23 24 28 31 24 16 14 
13 13 11 8 9 12 22 41 57 64 61 55 59 67 63 54 
51 30 28 29 31 38 49 66 76 80 82 87 99 115 118 104 92 86 
84 80 81 80 90 96 78 57 56 62 72 80 96 117 153 170 
139 91 57 34 29 30 33 33 30 22 16 14 15 23 32 30 
25 23 23 25 26 22 16 14 15 14 13 17 25 23 15 14 
15 16 14 10 11 14 23 38 51 64 62 47 46 52 49 42 
42 46 42 42 39 39 43 56 66 68 64 63 67 84 96 97 90 85 
78 75 76 79 94 114 115 93 84 85 100 112 123 137 149 145 
109 69 39 24 21 21 24 26 26 20 13 9 11 20 30 28 
21 17 16 18 20 17 12 11 12 11 8 11 23 23 17 17 
19 20 17 12 13 17 25 37 49 64 61 41 35 40 40 36 
35 63 58 53 43 35 37 54 69 69 62 55 50 57 69 81 81 78 
75 71 66 64 70 99 122 131 122 108 110 113 106 108 114 102 
76 48 27 17 11 11 13 17 21 19 15 13 16 23 28 26 
20 17 14 16 17 15 10 10 11 10 7 9 18 22 20 21 
24 24 23 22 24 29 36 45 55 64 58 39 31 35 35 32 
31 57 54 51 47 43 46 60 69 64 55 47 44 46 54 70 78 83 
80 75 67 54 48 64 91 132 143 121 105 89 74 73 76 64 
54 39 23 15 7 7 8 13 18 21 21 21 23 24 21 16 
14 13 14 16 20 17 13 13 15 13 11 12 18 20 20 25 
29 32 35 38 42 45 48 51 54 58 54 41 36 39 36 34 
32 40 40 44 46 50 60 68 64 54 50 47 46 47 53 63 73 79 
81 82 68 53 47 56 77 118 146 131 106 81 61 58 53 46 
43 33 24 18 11 10 11 13 18 22 24 23 22 20 15 10 
9 10 13 17 22 22 19 19 20 18 17 18 19 19 21 27 
34 39 42 45 45 44 42 40 39 43 46 44 47 52 49 47 
48 40 39 44 48 58 72 75 58 46 46 48 48 45 45 47 56 57 
63 77 75 59 51 56 73 109 137 126 103 75 56 51 47 42 
35 28 25 22 19 18 17 17 18 20 21 19 17 15 12 9 
7 8 11 16 22 25 25 25 25 23 21 19 19 20 23 28 
35 39 38 36 34 29 25 25 28 34 41 48 59 72 75 73 
74 48 45 49 56 67 77 74 56 46 47 51 48 42 40 40 48 51 
56 73 74 58 47 45 57 88 119 121 112 86 67 61 52 42 
31 24 25 26 27 27 23 19 17 17 18 17 15 15 15 13 
11 10 10 13 18 25 28 30 31 30 26 22 19 20 19 22 
28 29 26 25 23 19 17 19 26 33 36 43 59 81 92 90 
90 54 52 54 56 55 61 58 48 43 46 53 47 39 39 43 51 55 
59 73 74 58 42 35 43 64 101 119 125 107 86 78 57 41 
30 25 29 32 35 34 27 21 18 16 17 17 16 16 17 18 
17 15 13 13 17 22 26 29 29 28 26 22 18 15 12 14 
18 16 14 14 17 19 21 23 28 31 33 39 55 71 79 74 
76 44 45 49 51 47 50 51 47 47 50 54 47 38 39 44 54 63 
69 80 80 62 39 31 35 48 76 108 132 134 116 95 62 42 
34 34 39 45 49 46 35 27 22 20 19 18 17 18 19 20 
19 16 14 14 17 19 22 24 21 17 17 16 14 13 10 13 
15 12 10 11 16 24 28 26 28 28 31 40 48 55 52 46 
45 30 32 39 45 44 48 56 63 69 74 76 68 52 49 52 61 66 
77 82 81 63 39 29 31 43 65 99 139 152 138 108 71 55 
51 51 55 58 62 58 46 34 28 26 26 24 19 17 17 16 
17 15 14 15 18 19 19 19 14 10 9 8 9 10 10 13 
15 12 11 13 19 27 30 27 27 28 32 39 43 43 36 31 
31 26 26 30 34 36 43 54 65 78 86 90 80 64 59 57 64 67 
75 82 79 64 39 29 36 51 70 99 140 158 139 105 73 63 
62 58 58 58 56 54 47 38 33 30 31 26 19 15 14 13 
13 14 15 16 19 18 17 15 11 8 5 3 4 6 9 14 
17 16 16 19 22 26 28 26 28 31 38 44 43 36 30 27 
29 27 25 28 33 41 52 61 68 79 89 97 92 75 63 59 62 71 
82 79 72 60 45 37 47 65 91 119 146 145 125 95 70 62 
60 59 55 52 45 43 41 38 33 29 28 23 17 14 14 13 
11 10 11 13 16 16 16 15 12 8 3 0 1 4 9 17 
22 23 25 27 27 26 27 26 27 33 43 47 41 33 28 26 
24 30 32 40 51 61 73 78 83 88 90 97 97 87 68 59 59 73 
89 78 60 52 44 49 64 85 115 135 130 125 107 80 64 57 
60 59 51 42 39 37 36 33 28 24 21 20 16 12 12 12 
10 7 6 7 10 12 15 17 16 11 4 0 0 4 10 17 
24 28 32 33 29 27 25 24 25 31 39 39 36 32 28 25 
23 33 37 47 59 65 69 77 80 76 69 66 72 72 59 58 59 77 
95 76 47 36 34 55 81 105 133 130 101 97 84 66 56 52 
54 46 30 25 27 30 31 30 25 21 19 17 14 10 7 8 
8 5 4 4 5 7 11 14 16 13 6 1 2 5 10 13 
19 23 25 26 24 21 21 20 20 26 30 30 31 30 26 21 
18 34 34 42 48 46 54 69 71 61 47 40 46 54 49 53 61 81 
95 70 39 23 24 52 92 120 137 114 84 78 70 63 60 54 
45 28 15 12 16 20 25 26 22 18 16 16 15 10 6 6 
7 4 2 2 2 3 6 9 13 13 8 4 4 7 8 9 
12 15 17 18 17 17 18 17 17 22 26 26 28 28 23 17 
14 22 30 37 43 39 51 71 75 61 46 33 37 48 50 55 67 89 
102 72 38 18 20 51 101 131 144 112 83 72 67 68 64 59 
44 24 12 9 12 14 20 23 20 16 15 16 16 10 7 5 
6 3 0 0 1 2 6 8 13 14 7 3 4 6 7 8 
11 14 16 16 16 16 17 16 16 22 26 26 28 27 22 15 
10 