P2
# Created by IrfanView
8 8
255
0 0 0 0 255 255 255 0 
255 0 0 0 255 0 0 0 
255 255 0 0 255 0 0 0 
255 255 0 0 255 0 0 0 
255 255 255 255 255 0 0 0 
0 0 0 0 0 0 0 0 
0 0 0 0 0 0 255 255 
0 255 0 0 0 255 255 255 
